<svg width="33" height="32" viewBox="0 0 33 32" fill="none" xmlns="http://www.w3.org/2000/svg">
<path d="M16.3083 2C13.3357 2.00344 10.4859 3.16347 8.38401 5.22563C6.2821 7.28778 5.09971 10.0837 5.0962 13C5.09264 15.3832 5.88612 17.7018 7.35492 19.6C7.35492 19.6 7.6607 19.995 7.71065 20.052L16.3083 30L24.9099 20.047C24.9548 19.994 25.2616 19.6 25.2616 19.6L25.2626 19.597C26.7307 17.6996 27.5238 15.3821 27.5203 13C27.5168 10.0837 26.3344 7.28778 24.2325 5.22563C22.1306 3.16347 19.2808 2.00344 16.3083 2ZM16.3083 17C15.5019 17 14.7136 16.7654 14.0431 16.3259C13.3727 15.8864 12.8501 15.2616 12.5415 14.5307C12.2329 13.7998 12.1522 12.9956 12.3095 12.2196C12.4668 11.4437 12.8551 10.731 13.4253 10.1716C13.9955 9.61216 14.722 9.2312 15.5128 9.07686C16.3037 8.92252 17.1235 9.00173 17.8685 9.30448C18.6135 9.60723 19.2502 10.1199 19.6982 10.7777C20.1462 11.4355 20.3854 12.2089 20.3854 13C20.384 14.0605 19.954 15.0771 19.1897 15.827C18.4254 16.5768 17.3892 16.9987 16.3083 17Z" fill="#8CCF4D"/>
</svg>
