<svg width="30" height="27" viewBox="0 0 30 27" fill="none" xmlns="http://www.w3.org/2000/svg">
<path d="M28.9102 1.29781L22.8165 0.0322102C22.1545 -0.104896 21.4748 0.20623 21.2053 0.765203L18.3928 6.67133C18.1467 7.18811 18.3108 7.79455 18.7971 8.14786L22.3478 10.7634C20.2385 14.8081 16.553 18.1725 11.9652 20.1078L9.05902 16.9121C8.66059 16.4744 7.99263 16.3268 7.41843 16.5483L0.856062 19.0795C0.229121 19.3273 -0.116575 19.939 0.0357658 20.5349L1.44199 26.0192C1.58847 26.5887 2.15096 27 2.81305 27C17.8186 27 30 16.0578 30 2.53177C30 1.94115 29.5488 1.42964 28.9102 1.29781Z" fill="#8CCF4D"/>
</svg>
