<svg width="30" height="30" viewBox="0 0 30 30" fill="none" xmlns="http://www.w3.org/2000/svg">
<path d="M24.8878 9.26305C21.3407 3.89805 14.0987 2.30305 8.4825 5.63805C3.01408 8.97305 1.24053 16.223 4.78762 21.588L5.08321 22.023L3.90085 26.373L8.3347 25.213L8.77809 25.503C10.6994 26.518 12.7686 27.098 14.8377 27.098C17.0546 27.098 19.2715 26.518 21.1929 25.358C26.6613 21.878 28.2871 14.773 24.8878 9.26305ZM21.7841 20.428C21.1929 21.298 20.4539 21.878 19.4193 22.023C18.8282 22.023 18.0892 22.313 15.1333 21.153C12.6208 19.993 10.5516 18.108 9.07368 15.933C8.18691 14.918 7.74352 13.613 7.59573 12.308C7.59573 11.148 8.03911 10.133 8.77809 9.40805C9.07368 9.11805 9.36927 8.97305 9.66486 8.97305H10.4038C10.6994 8.97305 10.995 8.97305 11.1428 9.55305C11.4384 10.278 12.1774 12.018 12.1774 12.163C12.3252 12.308 12.3252 12.598 12.1774 12.743C12.3252 13.033 12.1774 13.323 12.0296 13.468C11.8818 13.613 11.734 13.903 11.5862 14.048C11.2906 14.193 11.1428 14.483 11.2906 14.773C11.8818 15.643 12.6208 16.513 13.3597 17.238C14.2465 17.963 15.1333 18.543 16.1678 18.978C16.4634 19.123 16.759 19.123 16.9068 18.833C17.0546 18.543 17.7936 17.818 18.0892 17.528C18.3848 17.238 18.5326 17.238 18.8282 17.383L21.1929 18.543C21.4885 18.688 21.7841 18.833 21.9319 18.978C22.0797 19.413 22.0797 19.993 21.7841 20.428Z" fill="#8CCF4D"/>
</svg>
