<svg width="29" height="32" viewBox="0 0 29 32" fill="none" xmlns="http://www.w3.org/2000/svg">
<g clip-path="url(#clip0)">
<path d="M14.5 12.5759C13.8454 12.5761 13.2056 12.7705 12.6614 13.1343C12.1173 13.4982 11.6932 14.0152 11.4429 14.62C11.1925 15.2249 11.1272 15.8904 11.255 16.5323C11.3829 17.1743 11.6982 17.764 12.1612 18.2268C12.6241 18.6895 13.2139 19.0047 13.8559 19.1323C14.498 19.2599 15.1634 19.1943 15.7682 18.9437C16.3729 18.6931 16.8898 18.2689 17.2534 17.7246C17.6171 17.1803 17.8112 16.5404 17.8112 15.8858C17.8105 15.008 17.4614 14.1663 16.8405 13.5456C16.2197 12.925 15.3778 12.5762 14.5 12.5759ZM22.2387 10.0317C22.0702 9.60468 21.8157 9.21683 21.4911 8.89222C21.1665 8.56761 20.7787 8.31316 20.3516 8.14466C19.0485 7.63023 15.9458 7.74565 14.5 7.74565C13.0541 7.74565 9.95455 7.62589 8.6477 8.14466C8.22068 8.31316 7.83283 8.56761 7.50822 8.89222C7.18361 9.21683 6.92916 9.60468 6.76066 10.0317C6.24685 11.3348 6.36165 14.4406 6.36165 15.8852C6.36165 17.3298 6.24685 20.4319 6.76314 21.7393C6.93164 22.1664 7.18609 22.5542 7.5107 22.8788C7.83531 23.2034 8.22316 23.4579 8.65019 23.6264C9.95331 24.1408 13.056 24.0254 14.5025 24.0254C15.9489 24.0254 19.0473 24.1452 20.3541 23.6264C20.7811 23.4579 21.169 23.2034 21.4936 22.8788C21.8182 22.5542 22.0727 22.1664 22.2412 21.7393C22.7593 20.4362 22.6402 17.3304 22.6402 15.8858C22.6402 14.4412 22.7593 11.3398 22.2412 10.0323L22.2387 10.0317ZM14.5 20.9742C13.4936 20.9742 12.5098 20.6758 11.673 20.1167C10.8362 19.5576 10.184 18.7629 9.79891 17.8331C9.41379 16.9033 9.31302 15.8802 9.50936 14.8931C9.70569 13.9061 10.1903 12.9994 10.9019 12.2878C11.6136 11.5762 12.5202 11.0916 13.5073 10.8952C14.4943 10.6989 15.5174 10.7996 16.4472 11.1848C17.377 11.5699 18.1717 12.2221 18.7308 13.0589C19.2899 13.8957 19.5884 14.8794 19.5884 15.8858C19.5892 16.5543 19.4581 17.2163 19.2027 17.834C18.9473 18.4518 18.5725 19.013 18.0998 19.4857C17.6272 19.9584 17.0659 20.3331 16.4482 20.5886C15.8305 20.844 15.1684 20.975 14.5 20.9742ZM19.7981 11.7717C19.5632 11.7718 19.3335 11.7023 19.1381 11.5718C18.9427 11.4414 18.7904 11.2559 18.7004 11.0389C18.6104 10.8219 18.5868 10.5831 18.6325 10.3527C18.6783 10.1222 18.7914 9.91053 18.9574 9.74437C19.1235 9.5782 19.3351 9.46502 19.5655 9.41914C19.796 9.37326 20.0348 9.39675 20.2519 9.48663C20.4689 9.5765 20.6544 9.72873 20.785 9.92406C20.9155 10.1194 20.9852 10.349 20.9852 10.584C20.9858 10.74 20.9557 10.8946 20.8965 11.0389C20.8372 11.1833 20.7501 11.3145 20.64 11.4251C20.53 11.5356 20.3992 11.6234 20.2551 11.6833C20.1111 11.7432 19.9566 11.7741 19.8006 11.7742L19.7981 11.7717ZM25.4214 1.98584H3.57855C2.78858 1.98584 2.03097 2.29965 1.47238 2.85824C0.913792 3.41683 0.599979 4.17444 0.599979 4.96441L0.599979 26.8073C0.599979 27.5972 0.913792 28.3548 1.47238 28.9134C2.03097 29.472 2.78858 29.7858 3.57855 29.7858H25.4214C26.2114 29.7858 26.969 29.472 27.5276 28.9134C28.0862 28.3548 28.4 27.5972 28.4 26.8073V4.96441C28.4 4.17444 28.0862 3.41683 27.5276 2.85824C26.969 2.29965 26.2114 1.98584 25.4214 1.98584ZM24.359 19.9814C24.279 21.5718 23.916 22.981 22.755 24.139C21.5939 25.2969 20.1859 25.6673 18.5974 25.743C16.9585 25.8355 12.0451 25.8355 10.4063 25.743C8.81587 25.663 7.4116 25.2994 6.24871 24.139C5.08583 22.9786 4.72034 21.5687 4.64463 19.9814C4.55217 18.3419 4.55217 13.4279 4.64463 11.7903C4.72468 10.1999 5.08335 8.79063 6.24871 7.63271C7.41408 6.47479 8.82207 6.10868 10.4063 6.03297C12.0451 5.94051 16.9585 5.94051 18.5974 6.03297C20.1878 6.11302 21.5964 6.47666 22.755 7.63706C23.9135 8.79746 24.2833 10.2073 24.359 11.7977C24.4515 13.431 24.4515 18.3407 24.359 19.9814Z" fill="#68C213"/>
</g>
<defs>
<clipPath id="clip0">
<rect width="27.8" height="31.7714" fill="white" transform="translate(0.599979)"/>
</clipPath>
</defs>
</svg>
