<svg width="28" height="28" viewBox="0 0 28 28" fill="none" xmlns="http://www.w3.org/2000/svg">
<g clip-path="url(#clip0)">
<path d="M5.27607 0.0859375C2.46413 0.0859375 0.199959 2.35011 0.199959 5.16205V22.8098C0.199959 25.6218 2.46413 27.886 5.27607 27.886H14.841V17.0179H11.9672V13.105H14.841V9.76208C14.841 7.13568 16.539 4.7242 20.4505 4.7242C22.0342 4.7242 23.2053 4.87624 23.2053 4.87624L23.1132 8.53021C23.1132 8.53021 21.9189 8.51893 20.6156 8.51893C19.205 8.51893 18.9789 9.16883 18.9789 10.2478V13.1051H23.2253L23.0403 17.0179H18.9789V27.886H22.9238C25.7358 27.886 27.9999 25.6218 27.9999 22.8099V5.16208C27.9999 2.35014 25.7358 0.0859653 22.9238 0.0859653H5.27604L5.27607 0.0859375Z" fill="#68C213"/>
</g>
<defs>
<clipPath id="clip0">
<rect width="27.8" height="27.8" fill="white" transform="translate(0.199959 0.0859375)"/>
</clipPath>
</defs>
</svg>
