<svg width="28" height="32" viewBox="0 0 28 32" fill="none" xmlns="http://www.w3.org/2000/svg">
<g clip-path="url(#clip0)">
<path d="M24.8214 1.9856H2.97857C1.33415 1.9856 0 3.31975 0 4.96417V26.807C0 28.4514 1.33415 29.7856 2.97857 29.7856H24.8214C26.4658 29.7856 27.8 28.4514 27.8 26.807V4.96417C27.8 3.31975 26.4658 1.9856 24.8214 1.9856ZM21.787 11.8397C21.7994 12.0135 21.7994 12.1934 21.7994 12.3672C21.7994 17.7472 17.7039 23.9464 10.2202 23.9464C7.91183 23.9464 5.77098 23.2762 3.97143 22.122C4.30031 22.1592 4.61678 22.1716 4.95187 22.1716C6.85692 22.1716 8.60683 21.5263 10.003 20.4341C8.21589 20.3969 6.71419 19.2241 6.19915 17.6107C6.82589 17.7038 7.39058 17.7038 8.03593 17.5362C6.17433 17.1577 4.77812 15.5195 4.77812 13.54V13.4903C5.31799 13.7944 5.95094 13.9805 6.61491 14.0054C6.05669 13.6341 5.59908 13.1303 5.28291 12.5391C4.96674 11.9479 4.80185 11.2877 4.80294 10.6172C4.80294 9.86019 5.00152 9.16519 5.35522 8.56327C7.35955 11.033 10.3691 12.6464 13.7449 12.8201C13.1678 10.0588 15.2341 7.81863 17.7163 7.81863C18.8891 7.81863 19.944 8.30885 20.6887 9.10314C21.607 8.92939 22.4882 8.58809 23.2701 8.12269C22.966 9.06591 22.3269 9.86019 21.4829 10.3628C22.302 10.276 23.0963 10.0464 23.8286 9.72988C23.2763 10.5428 22.5813 11.2626 21.787 11.8397Z" fill="#8CCF4D"/>
</g>
<defs>
<clipPath id="clip0">
<rect width="27.8" height="31.7714" fill="white"/>
</clipPath>
</defs>
</svg>
