<svg width="32" height="28" viewBox="0 0 32 28" fill="none" xmlns="http://www.w3.org/2000/svg">
<path d="M18.6667 22.1667C23.6947 22.1667 26.2094 22.1667 27.7707 20.7993C29.3334 19.4332 29.3334 17.2328 29.3334 12.8333C29.3334 8.43383 29.3334 6.2335 27.7707 4.86733C26.2094 3.5 23.6947 3.5 18.6667 3.5H13.3334C8.30542 3.5 5.79075 3.5 4.22941 4.86733C2.66675 6.2335 2.66675 8.43383 2.66675 12.8333C2.66675 17.2328 2.66675 19.4332 4.22941 20.7993C5.10008 21.5623 6.26675 21.8995 8.00008 22.0477" stroke="#4552CB" stroke-width="2" stroke-linecap="round" stroke-linejoin="round"/>
<path d="M18.6667 22.1665C17.0187 22.1665 15.2027 22.7498 13.5454 23.5023C10.8814 24.7122 9.54941 25.3177 8.89341 24.9315C8.23741 24.5465 8.36141 23.3507 8.61074 20.9602L8.66674 20.4165" stroke="#4552CB" stroke-width="2" stroke-linecap="round"/>
<path d="M16.0001 12.8334L13.1721 15.3079M13.1721 10.3589L16.0001 12.8334L13.1721 10.3589ZM16.0001 12.8334L18.8281 15.3079L16.0001 12.8334ZM16.0001 12.8334L18.8281 10.3589L16.0001 12.8334Z" stroke="#4552CB" stroke-width="2" stroke-linecap="round"/>
</svg>
