<svg width="24" height="22" viewBox="0 0 24 22" fill="none" xmlns="http://www.w3.org/2000/svg">
<path d="M18.75 1.40938C18.75 0.721875 17.9625 0 17.1375 0H6.8625C6.0375 0 5.25 0.721875 5.25 1.40938V20.5563C5.25 21.2781 6.0375 21.9656 6.8625 21.9656H17.175C17.9625 21.9656 18.7875 21.2438 18.7875 20.5563V1.40938H18.75Z" fill="#5C6D6D"/>
<path d="M18.375 20.2808C18.375 20.9683 17.625 21.6558 16.875 21.6558H7.125C6.375 21.6558 5.625 20.9683 5.625 20.2808V1.71826C5.625 1.03076 6.375 0.343262 7.125 0.343262H16.875C17.625 0.343262 18.375 1.03076 18.375 1.71826V20.2808Z" fill="#212528"/>
<path d="M16.3125 1.8898C16.5196 1.8898 16.6875 1.73608 16.6875 1.54646C16.6875 1.35684 16.5196 1.20312 16.3125 1.20312C16.1054 1.20312 15.9375 1.35684 15.9375 1.54646C15.9375 1.73608 16.1054 1.8898 16.3125 1.8898Z" fill="#94989B"/>
<path d="M13.125 1.54618C13.125 1.64918 13.0875 1.71785 13.0125 1.71785H10.9875C10.9125 1.71785 10.875 1.64918 10.875 1.54618C10.875 1.47751 10.9125 1.37451 10.9875 1.37451H13.0125C13.0875 1.37451 13.125 1.47751 13.125 1.54618Z" fill="#94989B"/>
<path d="M6.375 2.75H17.625V19.25H6.375V2.75Z" fill="#3E4347"/>
<path d="M13.4249 20.6939C13.4249 20.8314 13.3124 20.9689 13.1249 20.9689H10.875C10.725 20.9689 10.575 20.8658 10.575 20.6939V20.1783C10.575 20.0408 10.6875 19.9033 10.875 19.9033H13.1249C13.2749 19.9033 13.4249 20.0064 13.4249 20.1783V20.6939Z" fill="#94989B"/>
<path d="M9.0001 5.05293C9.0001 5.2248 8.8501 5.32793 8.7001 5.32793H7.4626C7.2751 5.32793 7.1626 5.19043 7.1626 5.05293V3.91855C7.1626 3.74668 7.3126 3.64355 7.4626 3.64355H8.7001C8.8876 3.64355 9.0001 3.78105 9.0001 3.91855V5.05293Z" fill="#42ADE2"/>
<path d="M11.6251 5.05293C11.6251 5.2248 11.4751 5.32793 11.3251 5.32793H10.0876C9.9001 5.32793 9.7876 5.19043 9.7876 5.05293V3.91855C9.7876 3.74668 9.9376 3.64355 10.0876 3.64355H11.3251C11.5126 3.64355 11.6251 3.78105 11.6251 3.91855V5.05293Z" fill="#C7E755"/>
<path d="M14.2501 5.05293C14.2501 5.2248 14.1001 5.32793 13.9501 5.32793H12.7126C12.5251 5.32793 12.4126 5.19043 12.4126 5.05293V3.91855C12.4126 3.74668 12.5626 3.64355 12.7126 3.64355H13.9501C14.1376 3.64355 14.2501 3.78105 14.2501 3.91855V5.05293Z" fill="#F2B200"/>
<path d="M16.8751 5.05293C16.8751 5.2248 16.7251 5.32793 16.5751 5.32793H15.3376C15.1501 5.32793 15.0376 5.19043 15.0376 5.05293V3.91855C15.0376 3.74668 15.1876 3.64355 15.3376 3.64355H16.5751C16.7626 3.64355 16.8751 3.78105 16.8751 3.91855V5.05293Z" fill="#42ADE2"/>
<path d="M9.0001 18.2873C9.0001 18.4592 8.8501 18.5623 8.7001 18.5623H7.4626C7.2751 18.5623 7.1626 18.4248 7.1626 18.2873V17.1529C7.1626 16.9811 7.3126 16.8779 7.4626 16.8779H8.7001C8.8876 16.8779 9.0001 17.0154 9.0001 17.1529V18.2873Z" fill="#C7E755"/>
<path d="M11.6251 18.2873C11.6251 18.4592 11.4751 18.5623 11.3251 18.5623H10.0876C9.9001 18.5623 9.7876 18.4248 9.7876 18.2873V17.1529C9.7876 16.9811 9.9376 16.8779 10.0876 16.8779H11.3251C11.5126 16.8779 11.6251 17.0154 11.6251 17.1529V18.2873Z" fill="#FF435E"/>
<path d="M14.2501 18.2873C14.2501 18.4592 14.1001 18.5623 13.9501 18.5623H12.7126C12.5251 18.5623 12.4126 18.4248 12.4126 18.2873V17.1529C12.4126 16.9811 12.5626 16.8779 12.7126 16.8779H13.9501C14.1376 16.8779 14.2501 17.0154 14.2501 17.1529V18.2873Z" fill="#42ADE2"/>
<path d="M16.8751 18.2873C16.8751 18.4592 16.7251 18.5623 16.5751 18.5623H15.3376C15.1501 18.5623 15.0376 18.4248 15.0376 18.2873V17.1529C15.0376 16.9811 15.1876 16.8779 15.3376 16.8779H16.5751C16.7626 16.8779 16.8751 17.0154 16.8751 17.1529V18.2873Z" fill="#C28FEF"/>
<path d="M9.0001 11.653C9.0001 11.8249 8.8501 11.928 8.7001 11.928H7.4626C7.2751 11.928 7.1626 11.7905 7.1626 11.653V10.5187C7.1626 10.3468 7.3126 10.2437 7.4626 10.2437H8.7001C8.8876 10.2437 9.0001 10.3812 9.0001 10.5187V11.653Z" fill="#C7E755"/>
<path d="M11.6251 11.653C11.6251 11.8249 11.4751 11.928 11.3251 11.928H10.0876C9.9001 11.928 9.7876 11.7905 9.7876 11.653V10.5187C9.7876 10.3468 9.9376 10.2437 10.0876 10.2437H11.3251C11.5126 10.2437 11.6251 10.3812 11.6251 10.5187V11.653Z" fill="#C28FEF"/>
<path d="M14.2501 11.653C14.2501 11.8249 14.1001 11.928 13.9501 11.928H12.7126C12.5251 11.928 12.4126 11.7905 12.4126 11.653V10.5187C12.4126 10.3468 12.5626 10.2437 12.7126 10.2437H13.9501C14.1376 10.2437 14.2501 10.3812 14.2501 10.5187V11.653Z" fill="#42ADE2"/>
<path d="M9.0001 9.45332C9.0001 9.6252 8.8501 9.72832 8.7001 9.72832H7.4626C7.2751 9.72832 7.1626 9.59082 7.1626 9.45332V8.31895C7.1626 8.14707 7.3126 8.04395 7.4626 8.04395H8.7001C8.8876 8.04395 9.0001 8.18145 9.0001 8.31895V9.45332Z" fill="#FF435E"/>
<path d="M11.6251 9.45332C11.6251 9.6252 11.4751 9.72832 11.3251 9.72832H10.0876C9.9001 9.72832 9.7876 9.59082 9.7876 9.45332V8.31895C9.7876 8.14707 9.9376 8.04395 10.0876 8.04395H11.3251C11.5126 8.04395 11.6251 8.18145 11.6251 8.31895V9.45332Z" fill="#F2B200"/>
<path d="M14.2501 9.45332C14.2501 9.6252 14.1001 9.72832 13.9501 9.72832H12.7126C12.5251 9.72832 12.4126 9.59082 12.4126 9.45332V8.31895C12.4126 8.14707 12.5626 8.04395 12.7126 8.04395H13.9501C14.1376 8.04395 14.2501 8.18145 14.2501 8.31895V9.45332Z" fill="#C7E755"/>
<path d="M16.8751 9.45332C16.8751 9.6252 16.7251 9.72832 16.5751 9.72832H15.3376C15.1501 9.72832 15.0376 9.59082 15.0376 9.45332V8.31895C15.0376 8.14707 15.1876 8.04395 15.3376 8.04395H16.5751C16.7626 8.04395 16.8751 8.18145 16.8751 8.31895V9.45332Z" fill="#F2B200"/>
<path d="M9.0001 7.25312C9.0001 7.425 8.8501 7.52812 8.7001 7.52812H7.4626C7.2751 7.52812 7.1626 7.39062 7.1626 7.25312V6.11875C7.1626 5.94687 7.3126 5.84375 7.4626 5.84375H8.7001C8.8876 5.84375 9.0001 5.98125 9.0001 6.11875V7.25312Z" fill="#C28FEF"/>
<path d="M11.6251 7.25312C11.6251 7.425 11.4751 7.52812 11.3251 7.52812H10.0876C9.9001 7.52812 9.7876 7.39062 9.7876 7.25312V6.11875C9.7876 5.94687 9.9376 5.84375 10.0876 5.84375H11.3251C11.5126 5.84375 11.6251 5.98125 11.6251 6.11875V7.25312Z" fill="#42ADE2"/>
<path d="M14.2501 7.25312C14.2501 7.425 14.1001 7.52812 13.9501 7.52812H12.7126C12.5251 7.52812 12.4126 7.39062 12.4126 7.25312V6.11875C12.4126 5.94687 12.5626 5.84375 12.7126 5.84375H13.9501C14.1376 5.84375 14.2501 5.98125 14.2501 6.11875V7.25312Z" fill="#FF435E"/>
<path d="M16.8751 7.25312C16.8751 7.425 16.7251 7.52812 16.5751 7.52812H15.3376C15.1501 7.52812 15.0376 7.39062 15.0376 7.25312V6.11875C15.0376 5.94687 15.1876 5.84375 15.3376 5.84375H16.5751C16.7626 5.84375 16.8751 5.98125 16.8751 6.11875V7.25312Z" fill="#C28FEF"/>
</svg>
