<svg width="84" height="17" viewBox="0 0 84 17" fill="none" xmlns="http://www.w3.org/2000/svg">
<path d="M2.58008 15.821L8.54675 3.88768C9.31678 2.34763 11.5145 2.34763 12.2845 3.88769L16.3823 12.0833C17.1523 13.6233 19.3501 13.6233 20.1201 12.0833L24.2179 3.88768C24.9879 2.34763 27.1856 2.34763 27.9557 3.88769L32.0535 12.0833C32.8235 13.6233 35.0212 13.6233 35.7912 12.0833L39.889 3.88768C40.6591 2.34763 42.8568 2.34763 43.6268 3.88769L47.7246 12.0833C48.4946 13.6233 50.6923 13.6233 51.4624 12.0833L55.5602 3.88768C56.3302 2.34763 58.5279 2.34763 59.2979 3.88769L63.3957 12.0833C64.1658 13.6233 66.3635 13.6233 67.1335 12.0833L71.2313 3.88768C72.0013 2.34763 74.1991 2.34763 74.9691 3.88769L80.9358 15.821" stroke="#92B227" stroke-width="5.22371"/>
</svg>
