<svg width="28" height="28" viewBox="0 0 28 28" fill="none" xmlns="http://www.w3.org/2000/svg">
<path d="M14 28C21.732 28 28 21.732 28 14C28 6.26801 21.732 0 14 0C6.26801 0 0 6.26801 0 14C0 21.732 6.26801 28 14 28Z" fill="#4353FF"/>
<path d="M18.1125 12.3375L16.8438 16.3362C16.8438 16.03 15.9688 9.39746 15.9688 9.39746C13.9563 9.39746 12.8888 10.8237 12.3288 12.3375L10.78 16.345C10.78 16.0562 10.5613 12.3725 10.5613 12.3725C10.4866 11.575 10.122 10.8326 9.53662 10.286C8.95124 9.73929 8.18571 9.42628 7.38501 9.40621L9.03001 19.4512C11.13 19.4512 12.2675 18.025 12.8538 16.5112L14.1663 13.0987C14.1663 13.2387 15.0413 19.4512 15.0413 19.4512C15.9 19.4501 16.736 19.1756 17.4283 18.6674C18.1205 18.1593 18.6329 17.4439 18.8913 16.625L21.8663 9.39746C19.7663 9.39746 18.6638 10.8237 18.1038 12.3375H18.1125Z" fill="white"/>
</svg>
